# xmcd
#
# Track frame offsets:
# 150
# 17027
# 52282
# 66480
# 91372
# 122375
# 155572
# 171810
# 185502
# 200425
# 219092
# 241800
# 259857
# 274335
# 299067
# 327717
#
# Disc length: 4706 seconds
#
# Revision: 0
# Processed by: cddbd v1.4PL0 Copyright (c) Steve Scherf et al.
# Submitted via: Audion 3.0.2 (http://www.panic.com/audion/)
#
DISCID=fb126010
DTITLE=Verdi - Callas - Forza del destino
DYEAR=1900
DGENRE=
TTITLE0=
TTITLE1=
TTITLE2=
TTITLE3=
TTITLE4=
TTITLE5=
TTITLE6=La vergine degli angeli
TTITLE7=
TTITLE8=
TTITLE9=
TTITLE10=
TTITLE11=
TTITLE12=
TTITLE13=
TTITLE14=Pace mio dio
TTITLE15=
EXTD=
EXTT0=
EXTT1=
EXTT2=
EXTT3=
EXTT4=
EXTT5=
EXTT6=
EXTT7=
EXTT8=
EXTT9=
EXTT10=
EXTT11=
EXTT12=
EXTT13=
EXTT14=
EXTT15=
PLAYORDER=
